<svg width="12" height="12" viewBox="0 0 12 12" fill="none" xmlns="http://www.w3.org/2000/svg">
<path d="M11.8956 3.56973L11.8966 3.56986C11.9011 3.53698 11.9011 3.50362 11.8966 3.47074L11.8947 3.457H11.8956V3.42467C11.8881 3.40303 11.8785 3.38216 11.8671 3.36232L11.8619 3.35343L11.8624 3.35321C11.8583 3.34406 11.853 3.33552 11.8466 3.32782L11.8442 3.32489L11.8442 3.32484L11.7926 3.25732L11.7555 3.22937L11.689 3.17923L6.29693 0.168081L6.29549 0.167275L6.29549 0.167263C6.21954 0.123185 6.13343 0.1 6.0458 0.1C5.95817 0.1 5.87205 0.123185 5.7961 0.167263L5.79467 0.168093L5.79466 0.168081L0.403377 3.1788L0.355485 3.21624L0.35294 3.21823L0.352909 3.21819L0.296819 3.2592C0.289169 3.26906 0.282785 3.27989 0.277836 3.29143L0.269188 3.31159L0.252894 3.32628C0.241894 3.3362 0.232579 3.3479 0.225341 3.36091L0.224152 3.36305L0.224126 3.36304C0.213941 3.38034 0.205818 3.39879 0.199926 3.418C0.199115 3.42546 0.199332 3.433 0.200578 3.44042L0.20989 3.49579L0.167459 3.53257C0.141304 3.55524 0.118586 3.5816 0.1 3.61081V8.40641C0.10071 8.496 0.125195 8.58376 0.170889 8.6606C0.216639 8.73754 0.281972 8.80073 0.360075 8.84369L0.360644 8.844L5.75868 11.8585L5.76051 11.8595L5.76049 11.8595C5.77514 11.8681 5.79038 11.8756 5.80609 11.882H5.84787H5.85989L5.87157 11.8848C5.95453 11.9051 6.0411 11.9051 6.12406 11.8848L6.13574 11.882H6.14776H6.18712L6.24743 11.856L11.6405 8.84425C11.6406 8.8442 11.6407 8.84415 11.6408 8.84411C11.7179 8.8005 11.7821 8.73709 11.8269 8.66027C11.8717 8.58342 11.8954 8.49594 11.8956 8.40679C11.8956 8.40673 11.8956 8.40667 11.8956 8.40662M11.8956 3.56973L11.9956 8.40679L11.8956 8.40662M11.8956 3.56973V3.58361L11.8956 8.40662M11.8956 3.56973L11.8956 8.40662M5.94892 6.00405L5.99802 6.03157L6.04702 6.00388L7.63644 5.10556L7.78929 5.01917L7.63702 4.93178L3.54051 2.58047L3.49162 2.55241L3.4423 2.57971L1.7869 3.49612L1.62984 3.58306L1.78644 3.67084L5.94892 6.00405ZM6.04652 1.17511L5.99764 1.14786L5.94885 1.17526L4.67131 1.89271L4.51794 1.97884L4.6704 2.06657L8.76691 4.4239L8.81616 4.45224L8.86571 4.42445L10.2092 3.67082L10.3652 3.58335L10.209 3.49627L6.04652 1.17511ZM1.24862 4.52139L1.09956 4.43749V4.60853V8.05108V8.10976L1.1508 8.13838L5.34927 10.4837L5.49803 10.5668V10.3963V6.97189V6.91343L5.44709 6.88475L1.24862 4.52139ZM6.4976 10.3963V10.5668L6.64636 10.4837L10.8448 8.13838L10.8961 8.10976V8.05108V4.61456V4.44427L10.7473 4.52723L9.54778 5.19645L9.4965 5.22506V5.28378V7.13933L8.49694 7.64171V5.95902V5.78798L8.34789 5.87188L6.54854 6.88475L6.4976 6.91343V6.97189V10.3963Z" fill="white" stroke="#12335B" stroke-width="0.2"/>
</svg>
